<svg width="176" height="32" viewBox="0 0 176 32" fill="none" xmlns="http://www.w3.org/2000/svg">
<mask id="mask0" style="mask-type:alpha" maskUnits="userSpaceOnUse" x="0" y="6" width="32" height="20">
<path d="M30.182 6H1.818C0.813946 6 0 6.81395 0 7.818V24.182C0 25.1861 0.813946 26 1.818 26H30.182C31.1861 26 32 25.1861 32 24.182V7.818C32 6.81395 31.1861 6 30.182 6Z" fill="white"/>
</mask>
<g mask="url(#mask0)">
<path fill-rule="evenodd" clip-rule="evenodd" d="M9.81111 10.6916L7.26611 17.2116L6.23611 11.6676C6.11711 11.0486 5.64011 10.6916 5.11011 10.6916H0.949113L0.891113 10.9696C1.74511 11.1576 2.71511 11.4596 3.30311 11.7846C3.66311 11.9826 3.76611 12.1556 3.88411 12.6266L5.83411 20.2706H8.41811L12.3791 10.6916H9.81111ZM13.4281 10.6916L11.4061 20.2706H13.8511L15.8721 10.6916H13.4281ZM27.4461 13.2786L28.1861 16.8766H26.1591L27.4461 13.2786V13.2786ZM27.0871 10.6916C26.6191 10.6916 26.2231 10.9686 26.0471 11.3946L22.3791 20.2706H24.9451L25.4551 18.8406H28.5911L28.8881 20.2706H31.1481L29.1761 10.6916H27.0881H27.0871ZM16.5411 13.6826C16.5231 15.0626 17.7541 15.8326 18.6811 16.2896C19.6331 16.7596 19.9521 17.0596 19.9491 17.4796C19.9421 18.1226 19.1891 18.4066 18.4851 18.4176C17.2571 18.4376 16.5431 18.0816 15.9751 17.8126L15.5321 19.9116C16.1021 20.1776 17.1561 20.4096 18.2511 20.4196C20.8181 20.4196 22.4981 19.1356 22.5071 17.1426C22.5171 14.6156 19.0571 14.4756 19.0811 13.3456C19.0891 13.0026 19.4111 12.6376 20.1191 12.5446C20.4691 12.4976 21.4341 12.4616 22.5291 12.9726L22.9591 10.9426C22.3691 10.7246 21.6111 10.5166 20.6701 10.5166C18.2531 10.5166 16.5531 11.8186 16.5401 13.6826" fill="#1A1F71"/>
</g>
<path d="M48.3877 9.45898H55.5667V22.384H48.3877V9.45898Z" fill="#FF5F00"/>
<path d="M48.8439 15.9228C48.8409 13.3998 49.9969 11.0168 51.9779 9.45877C48.6129 6.81077 43.7819 7.19677 40.8799 10.3448C37.9769 13.4948 37.9769 18.3488 40.8799 21.4978C43.7819 24.6468 48.6129 25.0318 51.9779 22.3838C49.9979 20.8268 48.8419 18.4438 48.8439 15.9228V15.9228Z" fill="#EB001B"/>
<path d="M65.2541 15.9227C65.2541 19.0697 63.46 21.9397 60.634 23.3147C57.809 24.6907 54.4471 24.3287 51.9781 22.3837C53.9571 20.8257 55.113 18.4437 55.113 15.9217C55.113 13.3997 53.9571 11.0167 51.9771 9.45867C54.4471 7.51367 57.807 7.15267 60.633 8.52767C63.459 9.90267 65.2531 12.7737 65.2531 15.9197V15.9227H65.2541Z" fill="#F79E1B"/>
<path d="M101.562 21.9422C101.562 24.2842 99.6552 26.1902 97.3132 26.1902H74.2002V9.36519C74.2002 7.02419 76.1072 5.11719 78.4482 5.11719H101.562V21.9422V21.9422Z" fill="white"/>
<path d="M94.0352 17.6275H95.7912C95.8412 17.6275 95.9592 17.6105 96.0092 17.6105C96.3432 17.5435 96.6282 17.2425 96.6282 16.8245C96.6282 16.4235 96.3432 16.1225 96.0082 16.0385C95.9582 16.0215 95.8582 16.0215 95.7912 16.0215H94.0352V17.6275V17.6275Z" fill="url(#paint0_linear)"/>
<path d="M95.5903 6.53809C93.9193 6.53809 92.5483 7.89309 92.5483 9.58209V12.7431H96.8463C96.9463 12.7431 97.0633 12.7431 97.1473 12.7601C98.1173 12.8101 98.8373 13.3121 98.8373 14.1821C98.8373 14.8671 98.3513 15.4521 97.4483 15.5701V15.6031C98.4353 15.6701 99.1883 16.2231 99.1883 17.0751C99.1883 17.9951 98.3513 18.5971 97.2483 18.5971H92.5303V24.7851H96.9963C98.6683 24.7851 100.039 23.4301 100.039 21.7411V6.53809H95.5913H95.5903Z" fill="url(#paint1_linear)"/>
<path d="M96.4102 14.3825C96.4102 13.9815 96.1262 13.7135 95.7912 13.6635C95.7582 13.6635 95.6742 13.6465 95.6242 13.6465H94.0352V15.1185H95.6252C95.6752 15.1185 95.7752 15.1185 95.7912 15.1025C96.1262 15.0525 96.4112 14.7845 96.4112 14.3825H96.4102Z" fill="url(#paint2_linear)"/>
<path d="M78.7661 6.53906C77.0931 6.53906 75.7221 7.89306 75.7221 9.58306V17.0921C76.5751 17.5101 77.4621 17.7781 78.3481 17.7781C79.4011 17.7781 79.9701 17.1421 79.9701 16.2721V12.7271H82.5791V16.2561C82.5791 17.6271 81.7261 18.7481 78.8331 18.7481C77.0771 18.7481 75.7051 18.3631 75.7051 18.3631V24.7691H80.1711C81.8431 24.7691 83.2151 23.4141 83.2151 21.7251V6.53906H78.7651H78.7661Z" fill="url(#paint3_linear)"/>
<path d="M87.1783 6.53909C85.5063 6.53909 84.1343 7.89309 84.1343 9.58309V13.5631C84.9043 12.9111 86.2423 12.4931 88.3993 12.5931C89.5533 12.6431 90.7913 12.9611 90.7913 12.9611V14.2491C90.1723 13.9311 89.4363 13.6471 88.4833 13.5791C86.8433 13.4631 85.8573 14.2661 85.8573 15.6701C85.8573 17.0921 86.8443 17.8951 88.4833 17.7611C89.4363 17.6941 90.1723 17.3931 90.7913 17.0921V18.3801C90.7913 18.3801 89.5703 18.6981 88.3993 18.7481C86.2423 18.8481 84.9043 18.4301 84.1343 17.7781V24.8021H88.6003C90.2723 24.8021 91.6443 23.4471 91.6443 21.7581V6.53809H87.1783V6.53909Z" fill="url(#paint4_linear)"/>
<path d="M137 29.0018H110.929V2.93066H137V29.0018Z" fill="white"/>
<path d="M137 17.0521V2.94238H110.929V29.0135H137V21.407C136.942 21.407 137 17.0521 137 17.0521Z" fill="#006FCF"/>
<path d="M133.806 15.5998H135.78V11.0127H133.632V11.6514L133.226 11.0127H131.368V11.8256L131.019 11.0127H127.593C127.477 11.0127 127.361 11.0708 127.245 11.0708C127.129 11.0708 127.071 11.1288 126.955 11.1869C126.838 11.245 126.78 11.245 126.664 11.303V11.0127H116.851L116.561 11.7675L116.271 11.0127H113.948V11.8256L113.6 11.0127H111.742L110.929 12.9869V15.5998H112.264L112.496 14.9611H112.961L113.193 15.5998H123.413V15.0192L123.819 15.5998H126.664V15.2514C126.722 15.3095 126.838 15.3095 126.897 15.3676C126.955 15.4256 127.071 15.4256 127.129 15.4837C127.245 15.5418 127.361 15.5418 127.477 15.5418H129.568L129.8 14.903H130.264L130.497 15.5418H133.342V14.9611L133.806 15.5998V15.5998ZM137 21.4063V17.1095H121.032L120.626 17.6901L120.219 17.1095H115.574V21.6966H120.219L120.626 21.116L121.032 21.6966H123.935V20.7095H123.819C124.226 20.7095 124.574 20.6515 124.864 20.5353V21.7547H126.955V21.174L127.361 21.7547H136.013C136.361 21.6386 136.709 21.5805 137 21.4063V21.4063Z" fill="white"/>
<path d="M136.013 20.3041H134.445V20.9428H135.955C136.593 20.9428 137 20.5363 137 19.9557C137 19.375 136.651 19.0847 136.071 19.0847H135.374C135.2 19.0847 135.084 18.9686 135.084 18.7944C135.084 18.6202 135.2 18.5041 135.374 18.5041H136.709L137 17.8654H135.432C134.793 17.8654 134.387 18.2718 134.387 18.7944C134.387 19.375 134.735 19.6654 135.316 19.6654H136.013C136.187 19.6654 136.303 19.7815 136.303 19.9557C136.361 20.188 136.245 20.3041 136.013 20.3041V20.3041ZM133.168 20.3041H131.6V20.9428H133.109C133.748 20.9428 134.155 20.5363 134.155 19.9557C134.155 19.375 133.806 19.0847 133.226 19.0847H132.529C132.355 19.0847 132.238 18.9686 132.238 18.7944C132.238 18.6202 132.355 18.5041 132.529 18.5041H133.864L134.155 17.8654H132.587C131.948 17.8654 131.542 18.2718 131.542 18.7944C131.542 19.375 131.89 19.6654 132.471 19.6654H133.168C133.342 19.6654 133.458 19.7815 133.458 19.9557C133.516 20.188 133.342 20.3041 133.168 20.3041V20.3041ZM131.135 18.446V17.8073H128.697V20.8847H131.135V20.246H129.393V19.6073H131.077V18.9686H129.393V18.3879H131.135V18.446V18.446ZM127.187 18.446C127.477 18.446 127.593 18.6202 127.593 18.7944C127.593 18.9686 127.477 19.1428 127.187 19.1428H126.316V18.3879L127.187 18.446V18.446ZM126.316 19.7815H126.664L127.593 20.8847H128.464L127.419 19.7234C127.942 19.6073 128.232 19.2589 128.232 18.7944C128.232 18.2138 127.826 17.8073 127.187 17.8073H125.561V20.8847H126.258L126.316 19.7815ZM124.458 18.8525C124.458 19.0847 124.342 19.2589 124.051 19.2589H123.122V18.446H123.993C124.284 18.446 124.458 18.6202 124.458 18.8525V18.8525ZM122.426 17.8073V20.8847H123.122V19.8396H124.051C124.69 19.8396 125.155 19.4331 125.155 18.7944C125.155 18.2138 124.748 17.7492 124.109 17.7492L122.426 17.8073V17.8073ZM121.38 20.8847H122.251L121.032 19.317L122.251 17.8073H121.38L120.626 18.7944L119.871 17.8073H119L120.219 19.317L119 20.8267H119.871L120.626 19.8396L121.38 20.8847V20.8847ZM118.767 18.446V17.8073H116.329V20.8847H118.767V20.246H117.026V19.6073H118.709V18.9686H117.026V18.3879H118.767V18.446V18.446ZM132.877 12.9879L134.097 14.846H134.968V11.7686H134.271V13.8008L134.097 13.5105L132.993 11.7686H132.064V14.846H132.761V12.7557L132.877 12.9879V12.9879ZM129.858 12.9299L130.09 12.2911L130.322 12.9299L130.613 13.6266H129.568L129.858 12.9299V12.9299ZM131.077 14.846H131.832L130.497 11.7686H129.568L128.232 14.846H128.987L129.277 14.2073H130.787L131.077 14.846V14.846ZM127.826 14.846L128.116 14.2073H127.942C127.419 14.2073 127.129 13.8589 127.129 13.3363V13.2782C127.129 12.7557 127.419 12.4073 127.942 12.4073H128.697V11.7686H127.884C126.955 11.7686 126.432 12.4073 126.432 13.2782V13.3363C126.432 14.2653 126.955 14.846 127.826 14.846ZM125.213 14.846H125.909V11.8266H125.213V14.846ZM123.703 12.4073C123.993 12.4073 124.109 12.5815 124.109 12.7557C124.109 12.9299 123.993 13.104 123.703 13.104H122.832V12.3492L123.703 12.4073V12.4073ZM122.832 13.7428H123.18L124.109 14.846H124.98L123.935 13.6847C124.458 13.5686 124.748 13.2202 124.748 12.7557C124.748 12.175 124.342 11.7686 123.703 11.7686H122.077V14.846H122.774L122.832 13.7428ZM121.555 12.4073V11.7686H119.116V14.846H121.555V14.2073H119.813V13.5686H121.497V12.9299H119.813V12.3492H121.555V12.4073V12.4073ZM116.271 14.846H116.909L117.78 12.3492V14.846H118.477V11.7686H117.316L116.619 13.8589L115.922 11.7686H114.761V14.846H115.458V12.3492L116.271 14.846ZM112.496 12.9299L112.729 12.2911L112.961 12.9299L113.251 13.6266H112.206L112.496 12.9299V12.9299ZM113.716 14.846H114.471L113.135 11.7686H112.264L110.929 14.846H111.684L111.974 14.2073H113.484L113.716 14.846Z" fill="#006FCF"/>
<path d="M150.255 6H158.227C159.34 6 160.033 6.90708 159.773 8.02364L156.061 23.9593C155.799 25.072 154.685 25.9799 153.571 25.9799H145.6C144.489 25.9799 143.795 25.072 144.054 23.9593L147.768 8.02364C148.027 6.90708 149.141 6 150.255 6Z" fill="#E21836"/>
<path d="M157.564 6H166.732C167.845 6 167.343 6.90708 167.081 8.02364L163.37 23.9593C163.11 25.072 163.191 25.9799 162.076 25.9799H152.908C151.793 25.9799 151.103 25.072 151.365 23.9593L155.076 8.02364C155.339 6.90708 156.451 6 157.564 6Z" fill="#00447C"/>
<path d="M166.369 6H174.341C175.455 6 176.147 6.90708 175.886 8.02364L172.175 23.9593C171.913 25.072 170.798 25.9799 169.683 25.9799H161.715C160.6 25.9799 159.908 25.072 160.169 23.9593L163.881 8.02364C164.141 6.90708 165.254 6 166.369 6Z" fill="#007B84"/>
<path d="M152.337 11.1063C151.518 11.1146 151.275 11.1063 151.198 11.088C151.168 11.2293 150.615 13.7813 150.614 13.7834C150.495 14.2997 150.408 14.6677 150.113 14.9054C149.946 15.0436 149.751 15.1102 149.525 15.1102C149.161 15.1102 148.95 14.9297 148.914 14.5873L148.907 14.4697C148.907 14.4697 149.018 13.7781 149.018 13.7743C149.018 13.7743 149.599 11.4487 149.703 11.1412C149.708 11.1238 149.71 11.1146 149.711 11.1063C148.581 11.1162 148.381 11.1063 148.367 11.088C148.359 11.1131 148.331 11.2572 148.331 11.2572L147.738 13.8784L147.687 14.1007L147.589 14.8279C147.589 15.0436 147.631 15.2196 147.716 15.3685C147.986 15.8405 148.756 15.9112 149.192 15.9112C149.754 15.9112 150.28 15.7919 150.636 15.574C151.254 15.2089 151.416 14.6382 151.56 14.131L151.627 13.8708C151.627 13.8708 152.225 11.4555 152.327 11.1412C152.331 11.1238 152.332 11.1146 152.337 11.1063ZM154.372 13.0548C154.228 13.0548 153.965 13.0898 153.728 13.2058C153.642 13.2499 153.561 13.3008 153.475 13.3515L153.553 13.0723L153.51 13.0252C153.008 13.1269 152.896 13.1405 152.432 13.2058L152.394 13.2316C152.34 13.678 152.292 14.0135 152.092 14.8909C152.016 15.2142 151.937 15.5407 151.858 15.8633L151.88 15.9043C152.355 15.8792 152.499 15.8792 152.912 15.886L152.945 15.8497C152.998 15.5809 153.005 15.518 153.121 14.9737C153.175 14.7156 153.289 14.1486 153.346 13.9467C153.449 13.8989 153.551 13.8519 153.648 13.8519C153.879 13.8519 153.851 14.0538 153.842 14.1342C153.832 14.2693 153.748 14.7104 153.661 15.0891L153.604 15.3336C153.563 15.5141 153.519 15.6895 153.479 15.8685L153.496 15.9043C153.965 15.8792 154.108 15.8792 154.508 15.886L154.555 15.8497C154.627 15.4299 154.648 15.3176 154.776 14.7065L154.841 14.4257C154.966 13.8762 155.029 13.5975 154.934 13.3705C154.834 13.1162 154.593 13.0548 154.372 13.0548ZM156.646 13.6301C156.397 13.6779 156.238 13.7098 156.08 13.7304C155.924 13.7555 155.771 13.7782 155.531 13.8116L155.512 13.8289L155.494 13.8427C155.469 14.0219 155.452 14.1768 155.419 14.3588C155.39 14.5471 155.347 14.7611 155.276 15.0685C155.222 15.3038 155.194 15.3858 155.163 15.4686C155.132 15.5514 155.099 15.6318 155.037 15.8632L155.052 15.8846L155.064 15.9042C155.289 15.8936 155.436 15.886 155.587 15.8846C155.738 15.8792 155.894 15.8846 156.137 15.886L156.158 15.8687L156.18 15.8496C156.215 15.6409 156.221 15.5848 156.242 15.483C156.263 15.3738 156.3 15.2226 156.389 14.8188C156.432 14.6291 156.479 14.4401 156.523 14.2465C156.569 14.0537 156.616 13.8639 156.662 13.6742L156.655 13.6513L156.646 13.6301ZM156.651 12.8544C156.425 12.7209 156.028 12.7632 155.761 12.9476C155.494 13.1284 155.464 13.3849 155.689 13.5201C155.912 13.6499 156.31 13.6112 156.575 13.4253C156.841 13.2407 156.874 12.9865 156.651 12.8544ZM158.019 15.9461C158.477 15.9461 158.946 15.82 159.299 15.4457C159.571 15.1422 159.695 14.6906 159.738 14.5046C159.879 13.8882 159.769 13.6005 159.632 13.4252C159.423 13.158 159.054 13.0723 158.672 13.0723C158.442 13.0723 157.894 13.095 157.466 13.4897C157.158 13.7744 157.016 14.1607 156.93 14.5311C156.844 14.9084 156.745 15.5878 157.369 15.8406C157.562 15.9234 157.84 15.9461 158.019 15.9461ZM157.983 14.5592C158.089 14.0925 158.213 13.7007 158.531 13.7007C158.78 13.7007 158.798 13.9922 158.688 14.4605C158.668 14.5645 158.577 14.951 158.454 15.1156C158.368 15.237 158.266 15.3107 158.154 15.3107C158.121 15.3107 157.922 15.3107 157.919 15.0155C157.917 14.8698 157.947 14.7209 157.983 14.5592ZM160.882 15.8861L160.918 15.8497C160.969 15.581 160.977 15.5178 161.089 14.9737C161.145 14.7157 161.262 14.1487 161.316 13.9468C161.42 13.8988 161.52 13.8517 161.62 13.8517C161.85 13.8517 161.822 14.0536 161.813 14.1341C161.804 14.2693 161.72 14.7102 161.632 15.089L161.577 15.3334C161.536 15.5141 161.49 15.6894 161.45 15.8686L161.467 15.9043C161.937 15.8793 162.075 15.8793 162.477 15.8861L162.526 15.8497C162.596 15.4298 162.615 15.3175 162.747 14.7065L162.81 14.4256C162.936 13.876 163 13.5976 162.907 13.3706C162.803 13.1162 162.561 13.0548 162.343 13.0548C162.199 13.0548 161.934 13.0896 161.699 13.2058C161.615 13.2499 161.53 13.3006 161.448 13.3516L161.52 13.0723L161.481 13.0251C160.979 13.1269 160.865 13.1405 160.402 13.2058L160.366 13.2317C160.31 13.678 160.264 14.0134 160.065 14.891C159.989 15.2143 159.91 15.5408 159.831 15.8633L159.852 15.9043C160.328 15.8793 160.47 15.8793 160.882 15.8861ZM164.334 15.9042C164.364 15.76 164.539 14.9054 164.541 14.9054C164.541 14.9054 164.69 14.2784 164.699 14.2556C164.699 14.2556 164.746 14.1903 164.794 14.1645H164.863C165.515 14.1645 166.252 14.1645 166.83 13.7395C167.223 13.448 167.492 13.0176 167.612 12.4945C167.643 12.3663 167.666 12.2137 167.666 12.0612C167.666 11.8608 167.626 11.6626 167.51 11.5078C167.215 11.0956 166.628 11.088 165.951 11.0849C165.949 11.0849 165.617 11.088 165.617 11.088C164.75 11.0987 164.403 11.0956 164.26 11.0781C164.248 11.1413 164.225 11.2536 164.225 11.2536C164.225 11.2536 163.915 12.6927 163.915 12.6951C163.915 12.6951 163.172 15.7548 163.137 15.899C163.893 15.8898 164.204 15.8898 164.334 15.9042ZM164.91 13.3478C164.91 13.3478 165.24 11.9116 165.238 11.917L165.249 11.8434L165.254 11.7872L165.386 11.8008C165.386 11.8008 166.066 11.8593 166.082 11.8608C166.351 11.9648 166.462 12.2328 166.385 12.5825C166.314 12.9022 166.107 13.1709 165.84 13.3007C165.621 13.4107 165.352 13.4199 165.075 13.4199H164.896L164.91 13.3478ZM166.965 14.5858C166.878 14.9578 166.778 15.6371 167.399 15.8792C167.598 15.9636 167.775 15.9886 167.956 15.9795C168.146 15.9692 168.323 15.8736 168.487 15.736C168.472 15.7926 168.457 15.8491 168.442 15.9058L168.47 15.9422C168.918 15.9233 169.056 15.9233 169.541 15.927L169.585 15.8936C169.655 15.4778 169.722 15.074 169.906 14.2784C169.996 13.8974 170.085 13.52 170.177 13.1405L170.162 13.0987C169.662 13.1914 169.529 13.2112 169.047 13.2794L169.011 13.3092C169.006 13.3478 169.001 13.3849 168.996 13.4221C168.922 13.3012 168.813 13.198 168.646 13.1337C168.432 13.0495 167.929 13.158 167.497 13.5513C167.194 13.8321 167.048 14.2168 166.965 14.5858ZM168.016 14.6086C168.123 14.1502 168.246 13.7623 168.565 13.7623C168.766 13.7623 168.872 13.9483 168.851 14.2654C168.833 14.3445 168.815 14.4279 168.793 14.5221C168.761 14.6583 168.727 14.7934 168.693 14.9286C168.659 15.0211 168.619 15.1084 168.575 15.1665C168.493 15.2827 168.298 15.3548 168.186 15.3548C168.154 15.3548 167.957 15.3548 167.95 15.0648C167.949 14.9205 167.979 14.7718 168.016 14.6086ZM173.502 13.095L173.463 13.0509C172.968 13.1512 172.878 13.1671 172.424 13.2285L172.39 13.2619C172.389 13.2674 172.387 13.2757 172.385 13.2833L172.383 13.2757C172.045 14.0567 172.055 13.8882 171.779 14.503C171.778 14.4751 171.778 14.4576 171.776 14.4278L171.707 13.095L171.664 13.0509C171.145 13.1512 171.133 13.1671 170.654 13.2285L170.617 13.2619C170.612 13.2779 170.612 13.2953 170.609 13.3144L170.612 13.3212C170.672 13.627 170.657 13.5588 170.717 14.0415C170.745 14.2784 170.783 14.5166 170.811 14.7506C170.858 15.1421 170.884 15.3349 170.942 15.9324C170.619 16.466 170.542 16.6679 170.231 17.1362L170.233 17.1409L170.014 17.4876C169.989 17.5241 169.966 17.5492 169.934 17.5599C169.899 17.5772 169.854 17.5803 169.79 17.5803H169.669L169.488 18.1807L170.108 18.1914C170.471 18.1898 170.7 18.0198 170.823 17.7913L171.212 17.124H171.206L171.247 17.077C171.509 16.5131 173.502 13.095 173.502 13.095ZM166.965 20.9809H166.703L167.675 17.7648H167.998L168.1 17.4335L168.11 17.8019C168.098 18.0296 168.277 18.2315 168.748 18.1981H169.292L169.479 17.5788H169.274C169.157 17.5788 169.102 17.5491 169.109 17.4853L169.099 17.1105H168.091V17.1124C167.765 17.1192 166.792 17.1437 166.595 17.1962C166.356 17.2576 166.105 17.4383 166.105 17.4383L166.204 17.1066H165.261L165.065 17.7648L164.079 21.0301H163.888L163.701 21.6449H165.578L165.515 21.8499H166.441L166.502 21.6449H166.762L166.965 20.9809ZM166.195 18.4183C166.044 18.46 165.763 18.5867 165.763 18.5867L166.013 17.7648H166.762L166.581 18.3637C166.581 18.3637 166.35 18.3773 166.195 18.4183ZM166.209 19.5925C166.209 19.5925 165.974 19.6221 165.819 19.6571C165.666 19.7033 165.38 19.849 165.38 19.849L165.638 18.9936H166.391L166.209 19.5925ZM165.789 20.9885H165.038L165.256 20.2666H166.005L165.789 20.9885ZM167.599 18.9936H168.682L168.527 19.4977H167.429L167.264 20.0488H168.225L167.497 21.0727C167.447 21.1479 167.401 21.1745 167.35 21.1957C167.299 21.2215 167.232 21.2518 167.155 21.2518H166.889L166.706 21.8554H167.402C167.765 21.8554 167.979 21.6906 168.137 21.4743L168.635 20.7919L168.742 21.4848C168.765 21.6146 168.858 21.6906 168.921 21.7201C168.991 21.7551 169.063 21.8152 169.165 21.8241C169.274 21.8288 169.353 21.8325 169.406 21.8325H169.748L169.954 21.157H169.819C169.741 21.157 169.608 21.144 169.585 21.1197C169.562 21.0902 169.562 21.0447 169.55 20.9755L169.441 20.281H168.996L169.192 20.0488H170.287L170.455 19.4977H169.441L169.599 18.9936H170.61L170.798 18.372H167.783L167.599 18.9936ZM158.451 21.1289L158.704 20.2879H159.743L159.933 19.6624H158.893L159.051 19.1447H160.068L160.256 18.539H157.713L157.529 19.1447H158.106L157.952 19.6624H157.373L157.181 20.2986H157.759L157.422 21.4112C157.376 21.5585 157.443 21.6147 157.485 21.6831C157.529 21.7497 157.573 21.7938 157.671 21.8189C157.773 21.8416 157.843 21.8552 157.938 21.8552H159.109L159.318 21.1623L158.799 21.2336C158.698 21.2336 158.421 21.2216 158.451 21.1289ZM158.57 17.1028L158.307 17.5787C158.25 17.6827 158.2 17.7472 158.154 17.7769C158.114 17.802 158.034 17.8125 157.919 17.8125H157.781L157.598 18.4213H158.054C158.273 18.4213 158.442 18.3408 158.522 18.3006C158.609 18.2544 158.631 18.2808 158.698 18.2163L158.852 18.0828H160.277L160.466 17.4489H159.423L159.605 17.1028H158.57ZM160.673 21.1411C160.649 21.1061 160.667 21.0445 160.704 20.9163L161.093 19.6274H162.478C162.68 19.6244 162.826 19.6221 162.921 19.6153C163.023 19.6046 163.134 19.5683 163.254 19.503C163.379 19.4346 163.442 19.3625 163.496 19.2797C163.556 19.1971 163.653 19.0164 163.736 18.7378L164.225 17.1067L162.787 17.115C162.787 17.115 162.345 17.1803 162.15 17.2524C161.953 17.3328 161.672 17.5575 161.672 17.5575L161.802 17.1103H160.914L159.671 21.2336C159.627 21.3937 159.597 21.5099 159.59 21.5797C159.588 21.6549 159.685 21.7293 159.748 21.7855C159.823 21.8416 159.933 21.8325 160.038 21.8416C160.149 21.85 160.307 21.8552 160.525 21.8552H161.207L161.417 21.1479L160.806 21.2056C160.74 21.2056 160.693 21.1706 160.673 21.1411ZM161.344 18.7568H162.799L162.707 19.0467C162.694 19.0535 162.663 19.0324 162.515 19.0498H161.255L161.344 18.7568ZM161.636 17.7844H163.103L162.998 18.1336C162.998 18.1336 162.306 18.1268 162.195 18.1472C161.708 18.2316 161.423 18.492 161.423 18.492L161.636 17.7844ZM162.74 20.0176C162.728 20.0609 162.708 20.0874 162.682 20.1072C162.652 20.1262 162.605 20.133 162.533 20.133H162.326L162.338 19.78H161.476L161.441 21.5061C161.439 21.6307 161.451 21.7027 161.543 21.7605C161.634 21.8325 161.914 21.8417 162.292 21.8417H162.833L163.028 21.1956L162.557 21.2214L162.401 21.2306C162.38 21.2214 162.359 21.2131 162.337 21.1903C162.317 21.1707 162.283 21.1827 162.289 21.0582L162.292 20.6157L162.786 20.5953C163.052 20.5953 163.166 20.5087 163.263 20.4261C163.356 20.347 163.386 20.256 163.421 20.133L163.504 19.7413H162.826L162.74 20.0176Z" fill="#FEFEFE"/>
<defs>
<linearGradient id="paint0_linear" x1="92.543" y1="16.8262" x2="100.061" y2="16.8262" gradientUnits="userSpaceOnUse">
<stop stop-color="#007940"/>
<stop offset="0.2285" stop-color="#00873F"/>
<stop offset="0.7433" stop-color="#40A737"/>
<stop offset="1" stop-color="#5CB531"/>
</linearGradient>
<linearGradient id="paint1_linear" x1="92.544" y1="15.6539" x2="100.06" y2="15.6539" gradientUnits="userSpaceOnUse">
<stop stop-color="#007940"/>
<stop offset="0.2285" stop-color="#00873F"/>
<stop offset="0.7433" stop-color="#40A737"/>
<stop offset="1" stop-color="#5CB531"/>
</linearGradient>
<linearGradient id="paint2_linear" x1="92.5427" y1="14.38" x2="100.062" y2="14.38" gradientUnits="userSpaceOnUse">
<stop stop-color="#007940"/>
<stop offset="0.2285" stop-color="#00873F"/>
<stop offset="0.7433" stop-color="#40A737"/>
<stop offset="1" stop-color="#5CB531"/>
</linearGradient>
<linearGradient id="paint3_linear" x1="75.718" y1="15.6548" x2="83.3508" y2="15.6548" gradientUnits="userSpaceOnUse">
<stop stop-color="#1F286F"/>
<stop offset="0.4751" stop-color="#004E94"/>
<stop offset="0.8261" stop-color="#0066B1"/>
<stop offset="1" stop-color="#006FBC"/>
</linearGradient>
<linearGradient id="paint4_linear" x1="84.0908" y1="15.6542" x2="91.5038" y2="15.6542" gradientUnits="userSpaceOnUse">
<stop stop-color="#6C2C2F"/>
<stop offset="0.1735" stop-color="#882730"/>
<stop offset="0.5731" stop-color="#BE1833"/>
<stop offset="0.8585" stop-color="#DC0436"/>
<stop offset="1" stop-color="#E60039"/>
</linearGradient>
</defs>
</svg>
